<?xml version="1.0" encoding="UTF-8" standalone="no"?>
<svg width="800" height="600" viewBox="0 0 800 600" xmlns="http://www.w3.org/2000/svg">
  <!-- European countries simplified map -->
  
  <!-- France -->
  <path 
    id="france" 
    class="country-path"
    d="M340,290 L335,270 L310,260 L300,230 L320,210 L370,205 L385,220 L395,260 L380,280 L360,290 Z" 
  />
  
  <!-- Germany -->
  <path 
    id="germany" 
    class="country-path"
    d="M385,220 L420,210 L450,215 L460,240 L450,260 L420,265 L395,260 Z" 
  />
  
  <!-- Italy -->
  <path 
    id="italy" 
    class="country-path"
    d="M380,280 L395,260 L420,265 L430,290 L410,320 L430,350 L420,370 L400,380 L390,350 L370,330 Z" 
  />
  
  <!-- Spain -->
  <path 
    id="spain" 
    class="country-path"
    d="M240,290 L250,250 L280,230 L300,230 L310,260 L335,270 L340,290 L320,340 L270,330 L250,310 Z" 
  />
  
  <!-- United Kingdom -->
  <path 
    id="uk" 
    class="country-path"
    d="M320,170 L330,180 L320,195 L330,205 L320,210 L300,230 L280,230 L290,210 L285,190 L300,180 Z" 
  />
  
  <!-- Poland -->
  <path 
    id="poland" 
    class="country-path"
    d="M450,215 L490,210 L510,230 L500,250 L460,240 Z" 
  />
  
  <!-- Sweden -->
  <path 
    id="sweden" 
    class="country-path"
    d="M425,130 L435,160 L420,180 L430,190 L420,210 L400,205 L390,180 L400,150 L410,140 Z" 
  />
  
  <!-- Norway -->
  <path 
    id="norway" 
    class="country-path"
    d="M375,100 L425,130 L410,140 L400,150 L390,180 L370,170 L365,140 L375,120 Z" 
  />
  
  <!-- Greece -->
  <path 
    id="greece" 
    class="country-path"
    d="M450,330 L470,320 L490,330 L480,350 L490,370 L470,380 L450,370 L460,350 Z" 
  />
  
  <!-- Romania -->
  <path 
    id="romania" 
    class="country-path"
    d="M490,260 L520,260 L530,280 L510,300 L480,290 L470,270 Z" 
  />

  <!-- Portugal -->
  <path 
    id="portugal" 
    class="country-path"
    d="M230,280 L240,290 L250,310 L240,330 L220,310 L210,290 L220,270 Z" 
  />

  <!-- Ireland -->
  <path 
    id="ireland" 
    class="country-path"
    d="M270,190 L285,190 L290,210 L280,230 L260,220 L255,200 Z" 
  />

  <!-- Switzerland -->
  <path 
    id="switzerland" 
    class="country-path"
    d="M370,260 L395,260 L400,280 L380,280 L370,270 Z" 
  />

  <!-- Austria -->
  <path 
    id="austria" 
    class="country-path"
    d="M420,265 L450,260 L470,270 L450,290 L430,290 L420,280 L400,280 L395,260 Z" 
  />

  <!-- Czech Republic -->
  <path 
    id="czech" 
    class="country-path"
    d="M420,240 L450,240 L460,240 L450,260 L420,265 L410,250 Z" 
  />

  <!-- Hungary -->
  <path 
    id="hungary" 
    class="country-path"
    d="M450,290 L470,270 L480,290 L470,310 L450,310 L430,290 Z" 
  />

  <!-- Bulgaria -->
  <path 
    id="bulgaria" 
    class="country-path"
    d="M480,290 L510,300 L520,320 L490,330 L470,320 L470,310 Z" 
  />

  <!-- Finland -->
  <path 
    id="finland" 
    class="country-path"
    d="M450,130 L480,100 L490,150 L470,180 L450,180 L430,160 L440,140 Z" 
  />

  <!-- Denmark -->
  <path 
    id="denmark" 
    class="country-path"
    d="M380,180 L400,180 L410,190 L390,200 L380,190 Z" 
  />

  <!-- Netherlands -->
  <path 
    id="netherlands" 
    class="country-path"
    d="M360,205 L370,205 L385,220 L370,230 L355,220 Z" 
  />

  <!-- Belgium -->
  <path 
    id="belgium" 
    class="country-path"
    d="M355,220 L370,230 L370,245 L350,240 L345,230 Z" 
  />

  <!-- Croatia -->
  <path 
    id="croatia" 
    class="country-path"
    d="M430,290 L450,310 L440,330 L410,320 Z" 
  />

  <!-- Serbia -->
  <path 
    id="serbia" 
    class="country-path"
    d="M450,310 L470,310 L470,320 L450,330 L440,330 Z" 
  />

  <!-- Ukraine -->
  <path 
    id="ukraine" 
    class="country-path"
    d="M500,250 L520,260 L570,260 L580,280 L560,300 L530,280 L520,260 Z" 
  />

  <!-- Belarus -->
  <path 
    id="belarus" 
    class="country-path"
    d="M510,230 L540,220 L560,230 L570,260 L520,260 Z" 
  />

  <!-- Lithuania -->
  <path 
    id="lithuania" 
    class="country-path"
    d="M490,210 L510,205 L525,210 L540,220 L510,230 Z" 
  />

  <!-- Latvia -->
  <path 
    id="latvia" 
    class="country-path"
    d="M480,190 L510,185 L530,190 L525,210 L510,205 L490,210 Z" 
  />

  <!-- Estonia -->
  <path 
    id="estonia" 
    class="country-path"
    d="M480,170 L500,165 L520,170 L530,190 L510,185 L480,190 Z" 
  />

  <!-- Slovakia -->
  <path 
    id="slovakia" 
    class="country-path"
    d="M450,260 L475,255 L480,270 L470,270 Z" 
  />
</svg>